<?xml version="1.0" encoding="utf-8"?>
<!-- Generator: Adobe Illustrator 22.1.0, SVG Export Plug-In . SVG Version: 6.00 Build 0)  -->
<svg version="1.1" id="Layer_1" xmlns="http://www.w3.org/2000/svg" xmlns:xlink="http://www.w3.org/1999/xlink" x="0px" y="0px"
	 viewBox="0 0 512 512" style="enable-background:new 0 0 512 512;" xml:space="preserve">
<style type="text/css">
	.st0{fill:#E56A77;}
</style>
<g id="group-32svg">
	<path id="path-1" class="st0" d="M363.4,92.3H200.2c-31.3,0-59.1,26.4-59.1,57.8v306l67.6-85.6h154.7c31.3,0,49.8-25.8,49.8-57.2
		V150C413.2,118.7,394.8,92.3,363.4,92.3z"/>
	<path id="path-2" d="M107.9,440.9c-0.9,0-1.9-0.1-2.8-0.4c-3.7-1.2-6.3-4.7-6.3-8.6v-306C98.8,88,128.7,56,164,56h163.2
		c34.1,0,61.8,31.3,61.8,69.8V289c0,36.6-26,63.2-61.8,63.2H177.1l-61.8,84.9C113.5,439.5,110.7,440.9,107.9,440.9z M164,74.1
		c-25,0-47,24.2-47,51.7V404l48.2-66.1c1.7-2.3,4.4-3.7,7.3-3.7h154.7c26.1,0,43.7-18.1,43.7-45.1V125.8c0-24.9-16.7-51.7-43.7-51.7
		H164z"/>
	<path id="path-3" d="M240.9,285.7h-48.4c-11.7,0-21.2-9.5-21.2-21.2v-36.3c0-11.7,9.5-21.2,21.2-21.2h48.4
		c11.7,0,21.2,9.5,21.2,21.2v36.3C262,276.2,252.6,285.7,240.9,285.7z M192.5,225.3c-1.7,0-3,1.4-3,3v36.3c0,1.7,1.4,3,3,3h48.4
		c1.7,0,3-1.4,3-3v-36.3c0-1.7-1.4-3-3-3H192.5z"/>
	<path id="path-4" d="M289.3,287.3c-1.8,0-3.5-0.5-5.1-1.5l-35.8-24.1c-2.2-1.5-3.6-3.8-3.9-6.4l-1.5-12.2c-0.5-3.6,1.3-7.2,4.5-9
		l37.3-21.2c2.8-1.6,6.3-1.6,9,0.1c2.8,1.6,4.5,4.6,4.5,7.8v57.4c0,3.3-1.8,6.4-4.8,8C292.2,286.9,290.7,287.3,289.3,287.3z
		 M261.9,248.9l18.2,12.3v-24.8l-18.5,10.5L261.9,248.9z"/>
</g>
</svg>
